<svg width="136" height="56" viewBox="0 0 136 56" fill="none" xmlns="http://www.w3.org/2000/svg">
<rect width="136" height="56" rx="10" fill="#7AE229"/>
<path d="M33.8274 36V20.7273H37.0565V33.3377H43.604V36H33.8274ZM50.8582 36.2237C49.6998 36.2237 48.6981 35.9776 47.8529 35.4854C47.0127 34.9883 46.3639 34.2972 45.9065 33.4123C45.4491 32.5224 45.2204 31.4908 45.2204 30.3175C45.2204 29.1342 45.4491 28.1001 45.9065 27.2152C46.3639 26.3253 47.0127 25.6342 47.8529 25.142C48.6981 24.6449 49.6998 24.3963 50.8582 24.3963C52.0166 24.3963 53.0159 24.6449 53.8561 25.142C54.7013 25.6342 55.3525 26.3253 55.8099 27.2152C56.2673 28.1001 56.496 29.1342 56.496 30.3175C56.496 31.4908 56.2673 32.5224 55.8099 33.4123C55.3525 34.2972 54.7013 34.9883 53.8561 35.4854C53.0159 35.9776 52.0166 36.2237 50.8582 36.2237ZM50.8731 33.7628C51.4001 33.7628 51.8401 33.6136 52.1931 33.3153C52.5461 33.0121 52.8121 32.5994 52.991 32.0774C53.175 31.5554 53.267 30.9613 53.267 30.2951C53.267 29.6289 53.175 29.0348 52.991 28.5128C52.8121 27.9908 52.5461 27.5781 52.1931 27.2749C51.8401 26.9716 51.4001 26.82 50.8731 26.82C50.3412 26.82 49.8937 26.9716 49.5308 27.2749C49.1729 27.5781 48.9019 27.9908 48.718 28.5128C48.539 29.0348 48.4495 29.6289 48.4495 30.2951C48.4495 30.9613 48.539 31.5554 48.718 32.0774C48.9019 32.5994 49.1729 33.0121 49.5308 33.3153C49.8937 33.6136 50.3412 33.7628 50.8731 33.7628ZM60.5342 36L57.417 24.5455H60.6311L62.406 32.2415H62.5104L64.3598 24.5455H67.5143L69.3936 32.1967H69.4905L71.2355 24.5455H74.4422L71.3325 36H67.9692L66.0004 28.7962H65.8588L63.89 36H60.5342Z" fill="white"/>
<path d="M93.5 29.5061C93.2654 29.5065 93.0369 29.4317 92.848 29.2926L83.9449 22.7229C83.8291 22.6373 83.7312 22.5298 83.657 22.4065C83.5827 22.2831 83.5335 22.1464 83.5121 22.004C83.469 21.7166 83.5419 21.4237 83.7148 21.1899C83.8877 20.9562 84.1465 20.8006 84.4342 20.7575C84.7219 20.7144 85.0149 20.7872 85.2489 20.96L93.5 27.0425L101.751 20.96C101.867 20.8744 101.999 20.8125 102.138 20.7778C102.278 20.743 102.423 20.7361 102.566 20.7575C102.708 20.7788 102.845 20.828 102.969 20.9022C103.092 20.9764 103.2 21.0742 103.285 21.1899C103.371 21.3057 103.433 21.4372 103.468 21.5768C103.502 21.7165 103.509 21.8617 103.488 22.004C103.466 22.1464 103.417 22.2831 103.343 22.4065C103.269 22.5298 103.171 22.6373 103.055 22.7229L94.152 29.2926C93.9631 29.4317 93.7346 29.5065 93.5 29.5061Z" fill="white"/>
<path d="M93.5 35.2547C93.2654 35.2551 93.0369 35.1802 92.848 35.0412L83.9449 28.4714C83.711 28.2986 83.5553 28.0401 83.5121 27.7526C83.469 27.4651 83.5419 27.1723 83.7148 26.9385C83.8877 26.7047 84.1465 26.5491 84.4342 26.506C84.7219 26.4629 85.0149 26.5358 85.2489 26.7085L93.5 32.791L101.751 26.7085C101.985 26.5358 102.278 26.4629 102.566 26.506C102.854 26.5491 103.112 26.7047 103.285 26.9385C103.458 27.1723 103.531 27.4651 103.488 27.7526C103.445 28.0401 103.289 28.2986 103.055 28.4714L94.152 35.0412C93.9631 35.1802 93.7346 35.2551 93.5 35.2547Z" fill="white"/>
</svg>
