<svg width="136" height="56" viewBox="0 0 136 56" fill="none" xmlns="http://www.w3.org/2000/svg">
<rect width="136" height="56" rx="10" fill="#FF3D00"/>
<path d="M29.261 20.7273H32.4901V30.6456C32.4901 31.7592 32.2241 32.7337 31.6921 33.5689C31.1651 34.4041 30.4268 35.0554 29.4773 35.5227C28.5277 35.9851 27.4215 36.2163 26.1587 36.2163C24.891 36.2163 23.7823 35.9851 22.8327 35.5227C21.8832 35.0554 21.1449 34.4041 20.6179 33.5689C20.0909 32.7337 19.8274 31.7592 19.8274 30.6456V20.7273H23.0565V30.3697C23.0565 30.9513 23.1832 31.4684 23.4368 31.9208C23.6953 32.3732 24.0582 32.7287 24.5256 32.9872C24.9929 33.2457 25.5373 33.375 26.1587 33.375C26.7852 33.375 27.3295 33.2457 27.7919 32.9872C28.2592 32.7287 28.6197 32.3732 28.8732 31.9208C29.1317 31.4684 29.261 30.9513 29.261 30.3697V20.7273ZM35.0871 36V24.5455H38.167V26.544H38.2863C38.4951 25.8331 38.8456 25.2962 39.3378 24.9332C39.83 24.5653 40.3968 24.3814 41.0381 24.3814C41.1972 24.3814 41.3687 24.3913 41.5526 24.4112C41.7366 24.4311 41.8982 24.4585 42.0374 24.4933V27.3121C41.8882 27.2674 41.6819 27.2276 41.4184 27.1928C41.1549 27.158 40.9138 27.1406 40.695 27.1406C40.2277 27.1406 39.8101 27.2425 39.4422 27.4464C39.0793 27.6452 38.7909 27.9237 38.5771 28.2816C38.3683 28.6396 38.2639 29.0522 38.2639 29.5195V36H35.0871ZM48.3072 40.5341C47.2781 40.5341 46.3956 40.3924 45.6598 40.109C44.929 39.8306 44.3473 39.4503 43.9148 38.968C43.4822 38.4858 43.2013 37.9439 43.0721 37.3423L46.0103 36.9471C46.0998 37.1758 46.2415 37.3896 46.4354 37.5884C46.6293 37.7873 46.8853 37.9464 47.2035 38.0657C47.5266 38.19 47.9194 38.2521 48.3817 38.2521C49.0728 38.2521 49.642 38.0831 50.0895 37.745C50.5419 37.4119 50.7681 36.8526 50.7681 36.0671V33.9716H50.6339C50.4947 34.2898 50.2859 34.5906 50.0075 34.8739C49.729 35.1573 49.3711 35.3885 48.9336 35.5675C48.4961 35.7464 47.9741 35.8359 47.3675 35.8359C46.5075 35.8359 45.7244 35.6371 45.0185 35.2393C44.3175 34.8366 43.7582 34.2227 43.3406 33.3974C42.9279 32.5671 42.7216 31.5181 42.7216 30.2504C42.7216 28.9528 42.9329 27.869 43.3555 26.9989C43.7781 26.1289 44.3398 25.4776 45.0408 25.0451C45.7468 24.6126 46.5199 24.3963 47.3601 24.3963C48.0014 24.3963 48.5384 24.5057 48.9709 24.7244C49.4034 24.9382 49.7514 25.2067 50.0149 25.5298C50.2834 25.848 50.4897 26.1612 50.6339 26.4695H50.7532V24.5455H53.9077V36.1119C53.9077 37.0863 53.669 37.9016 53.1918 38.5579C52.7145 39.2141 52.0533 39.7063 51.2081 40.0344C50.3679 40.3675 49.4009 40.5341 48.3072 40.5341ZM48.3743 33.4496C48.8864 33.4496 49.3189 33.3228 49.6719 33.0692C50.0298 32.8107 50.3033 32.4428 50.4922 31.9656C50.6861 31.4833 50.783 30.9066 50.783 30.2354C50.783 29.5643 50.6886 28.9826 50.4996 28.4904C50.3107 27.9933 50.0373 27.608 49.6793 27.3345C49.3214 27.0611 48.8864 26.9244 48.3743 26.9244C47.8523 26.9244 47.4123 27.0661 47.0543 27.3494C46.6964 27.6278 46.4254 28.0156 46.2415 28.5128C46.0575 29.0099 45.9656 29.5842 45.9656 30.2354C45.9656 30.8967 46.0575 31.4684 46.2415 31.9506C46.4304 32.4279 46.7013 32.7983 47.0543 33.0618C47.4123 33.3203 47.8523 33.4496 48.3743 33.4496ZM61.6559 36.2237C60.4776 36.2237 59.4634 35.9851 58.6133 35.5078C57.7681 35.0256 57.1168 34.3445 56.6594 33.4645C56.2021 32.5795 55.9734 31.533 55.9734 30.3249C55.9734 29.1467 56.2021 28.1126 56.6594 27.2227C57.1168 26.3327 57.7607 25.6392 58.5909 25.142C59.4261 24.6449 60.4055 24.3963 61.5291 24.3963C62.2848 24.3963 62.9883 24.5181 63.6396 24.7617C64.2958 25.0004 64.8675 25.3608 65.3548 25.843C65.8469 26.3253 66.2298 26.9318 66.5032 27.6626C66.7766 28.3885 66.9134 29.2386 66.9134 30.2131V31.0856H57.2411V29.1168H63.9229C63.9229 28.6594 63.8235 28.2543 63.6246 27.9013C63.4258 27.5483 63.1499 27.2724 62.7969 27.0735C62.4489 26.8697 62.0437 26.7678 61.5813 26.7678C61.0991 26.7678 60.6715 26.8796 60.2987 27.1033C59.9308 27.3221 59.6424 27.6179 59.4336 27.9908C59.2248 28.3587 59.1179 28.7688 59.1129 29.2212V31.093C59.1129 31.6598 59.2173 32.1495 59.4261 32.5621C59.6399 32.9748 59.9407 33.293 60.3285 33.5167C60.7163 33.7404 61.1761 33.8523 61.7081 33.8523C62.0611 33.8523 62.3842 33.8026 62.6776 33.7031C62.9709 33.6037 63.2219 33.4545 63.4308 33.2557C63.6396 33.0568 63.7987 32.8132 63.908 32.5249L66.8462 32.7188C66.6971 33.4247 66.3913 34.0412 65.929 34.5682C65.4716 35.0902 64.88 35.4979 64.1541 35.7912C63.4332 36.0795 62.6005 36.2237 61.6559 36.2237ZM72.1634 29.3778V36H68.9865V24.5455H72.0142V26.5664H72.1484C72.402 25.9002 72.8271 25.3732 73.4237 24.9854C74.0202 24.5927 74.7436 24.3963 75.5938 24.3963C76.3892 24.3963 77.0827 24.5703 77.6744 24.9183C78.266 25.2663 78.7259 25.7635 79.054 26.4098C79.3821 27.0511 79.5462 27.8168 79.5462 28.7067V36H76.3693V29.2734C76.3743 28.5724 76.1953 28.0256 75.8324 27.6328C75.4695 27.2351 74.9698 27.0362 74.3335 27.0362C73.9059 27.0362 73.5281 27.1282 73.1999 27.3121C72.8768 27.4961 72.6232 27.7646 72.4393 28.1175C72.2603 28.4656 72.1683 28.8857 72.1634 29.3778ZM88.1427 24.5455V26.9318H81.2446V24.5455H88.1427ZM82.8106 21.8011H85.9875V32.4801C85.9875 32.7734 86.0322 33.0021 86.1217 33.1662C86.2112 33.3253 86.3355 33.4371 86.4946 33.5018C86.6586 33.5664 86.8476 33.5987 87.0613 33.5987C87.2105 33.5987 87.3596 33.5863 87.5088 33.5614C87.6579 33.5316 87.7723 33.5092 87.8518 33.4943L88.3515 35.8583C88.1924 35.908 87.9687 35.9652 87.6803 36.0298C87.392 36.0994 87.0415 36.1417 86.6288 36.1566C85.8632 36.1864 85.192 36.0845 84.6153 35.8509C84.0436 35.6172 83.5986 35.2543 83.2805 34.7621C82.9623 34.2699 82.8057 33.6484 82.8106 32.8977V21.8011Z" fill="white"/>
<g clip-path="url(#clip0_156_1007)">
<path d="M116.404 35.2547C116.17 35.2551 115.941 35.1803 115.752 35.0412L107.5 28.958L99.2481 35.0412C99.1322 35.1267 99.0007 35.1887 98.8609 35.2234C98.7211 35.2582 98.5758 35.2651 98.4333 35.2437C98.2908 35.2223 98.154 35.1732 98.0305 35.099C97.9071 35.0247 97.7995 34.927 97.7138 34.8112C97.6282 34.6954 97.5662 34.5639 97.5315 34.4243C97.4967 34.2846 97.4898 34.1394 97.5112 33.997C97.5543 33.7095 97.71 33.4509 97.944 33.2781L106.848 26.7076C107.037 26.568 107.265 26.4927 107.5 26.4927C107.735 26.4927 107.964 26.568 108.152 26.7076L117.056 33.2781C117.242 33.415 117.38 33.6071 117.45 33.827C117.52 34.0469 117.519 34.2833 117.447 34.5025C117.375 34.7216 117.235 34.9124 117.048 35.0475C116.86 35.1826 116.635 35.2551 116.404 35.2547Z" fill="white"/>
<path d="M116.404 29.5057C116.17 29.5061 115.941 29.4312 115.752 29.2921L107.5 23.209L99.2481 29.2921C99.0141 29.4649 98.721 29.5378 98.4333 29.4947C98.1456 29.4515 97.8868 29.296 97.7138 29.0622C97.5409 28.8284 97.468 28.5355 97.5112 28.248C97.5543 27.9605 97.71 27.7019 97.944 27.5291L106.848 20.9586C107.037 20.819 107.265 20.7437 107.5 20.7437C107.735 20.7437 107.964 20.819 108.152 20.9586L117.056 27.5291C117.242 27.666 117.38 27.8581 117.45 28.078C117.52 28.2979 117.519 28.5343 117.447 28.7534C117.375 28.9726 117.235 29.1634 117.048 29.2985C116.86 29.4336 116.635 29.5061 116.404 29.5057Z" fill="white"/>
</g>
<defs>
<clipPath id="clip0_156_1007">
<rect width="20" height="14.5098" fill="white" transform="translate(97.5 20.7451)"/>
</clipPath>
</defs>
</svg>
