<svg width="116" height="76" viewBox="0 0 116 76" fill="none" xmlns="http://www.w3.org/2000/svg">
<path d="M13.5625 44.5V33.0781H14.8906V43.3125H19.9609V44.5H13.5625ZM25.0234 35.7812C25.7526 35.7812 26.3776 35.9427 26.8984 36.2656C27.4193 36.5885 27.8177 37.0417 28.0938 37.625C28.3698 38.2031 28.5078 38.8802 28.5078 39.6562V40.4609H22.5938C22.6094 41.4661 22.8594 42.2318 23.3438 42.7578C23.8281 43.2839 24.5104 43.5469 25.3906 43.5469C25.9323 43.5469 26.4115 43.4974 26.8281 43.3984C27.2448 43.2995 27.6771 43.1536 28.125 42.9609V44.1016C27.6927 44.2943 27.263 44.4349 26.8359 44.5234C26.4141 44.612 25.9141 44.6562 25.3359 44.6562C24.513 44.6562 23.7943 44.4896 23.1797 44.1562C22.5703 43.8177 22.0964 43.3229 21.7578 42.6719C21.4193 42.0208 21.25 41.224 21.25 40.2812C21.25 39.3594 21.4036 38.5625 21.7109 37.8906C22.0234 37.2135 22.4609 36.6927 23.0234 36.3281C23.5911 35.9635 24.2578 35.7812 25.0234 35.7812ZM25.0078 36.8438C24.3151 36.8438 23.763 37.0703 23.3516 37.5234C22.9401 37.9766 22.6953 38.6094 22.6172 39.4219H27.1484C27.1432 38.9115 27.0625 38.4635 26.9062 38.0781C26.7552 37.6875 26.5234 37.3854 26.2109 37.1719C25.8984 36.9531 25.4974 36.8438 25.0078 36.8438ZM33.1016 48.3438C31.9766 48.3438 31.1094 48.1328 30.5 47.7109C29.8906 47.2943 29.5859 46.7083 29.5859 45.9531C29.5859 45.4167 29.7552 44.9583 30.0938 44.5781C30.4375 44.1979 30.9115 43.9453 31.5156 43.8203C31.2917 43.7161 31.099 43.5599 30.9375 43.3516C30.7812 43.1432 30.7031 42.9036 30.7031 42.6328C30.7031 42.3203 30.7891 42.0469 30.9609 41.8125C31.138 41.5729 31.4062 41.3438 31.7656 41.125C31.3177 40.9427 30.9531 40.6354 30.6719 40.2031C30.3958 39.7656 30.2578 39.2578 30.2578 38.6797C30.2578 38.0651 30.3854 37.5417 30.6406 37.1094C30.8958 36.6719 31.2656 36.3385 31.75 36.1094C32.2344 35.8802 32.8203 35.7656 33.5078 35.7656C33.6589 35.7656 33.8099 35.7734 33.9609 35.7891C34.1172 35.7995 34.2656 35.8177 34.4062 35.8438C34.5469 35.8646 34.6693 35.8906 34.7734 35.9219H37.7109V36.7578L36.1328 36.9531C36.2891 37.1562 36.4193 37.401 36.5234 37.6875C36.6276 37.974 36.6797 38.2917 36.6797 38.6406C36.6797 39.4948 36.3906 40.1745 35.8125 40.6797C35.2344 41.1797 34.4401 41.4297 33.4297 41.4297C33.1901 41.4297 32.9453 41.4089 32.6953 41.3672C32.4401 41.5078 32.2448 41.6641 32.1094 41.8359C31.9792 42.0078 31.9141 42.2057 31.9141 42.4297C31.9141 42.5964 31.9635 42.7292 32.0625 42.8281C32.1667 42.9271 32.3151 43 32.5078 43.0469C32.7005 43.0885 32.9323 43.1094 33.2031 43.1094H34.7109C35.6432 43.1094 36.3568 43.3047 36.8516 43.6953C37.3516 44.0859 37.6016 44.6562 37.6016 45.4062C37.6016 46.3542 37.2161 47.0807 36.4453 47.5859C35.6745 48.0911 34.5599 48.3438 33.1016 48.3438ZM33.1406 47.3281C33.849 47.3281 34.4349 47.2552 34.8984 47.1094C35.3672 46.9688 35.7161 46.763 35.9453 46.4922C36.1797 46.2266 36.2969 45.9089 36.2969 45.5391C36.2969 45.1953 36.2188 44.9349 36.0625 44.7578C35.9062 44.5859 35.6771 44.4714 35.375 44.4141C35.0729 44.3516 34.7031 44.3203 34.2656 44.3203H32.7812C32.3958 44.3203 32.0599 44.3802 31.7734 44.5C31.487 44.6198 31.2656 44.7969 31.1094 45.0312C30.9583 45.2656 30.8828 45.5573 30.8828 45.9062C30.8828 46.3698 31.0781 46.7214 31.4688 46.9609C31.8594 47.2057 32.4167 47.3281 33.1406 47.3281ZM33.4766 40.4844C34.0964 40.4844 34.5625 40.3281 34.875 40.0156C35.1875 39.7031 35.3438 39.2474 35.3438 38.6484C35.3438 38.0078 35.1849 37.5286 34.8672 37.2109C34.5495 36.888 34.0807 36.7266 33.4609 36.7266C32.8672 36.7266 32.4089 36.8932 32.0859 37.2266C31.7682 37.5547 31.6094 38.0365 31.6094 38.6719C31.6094 39.2552 31.7708 39.7031 32.0938 40.0156C32.4167 40.3281 32.8776 40.4844 33.4766 40.4844ZM42.6016 35.7969C43.6224 35.7969 44.3802 36.026 44.875 36.4844C45.3698 36.9427 45.6172 37.6745 45.6172 38.6797V44.5H44.6719L44.4219 43.2344H44.3594C44.1198 43.5469 43.8698 43.8099 43.6094 44.0234C43.349 44.2318 43.0469 44.3906 42.7031 44.5C42.3646 44.6042 41.9479 44.6562 41.4531 44.6562C40.9323 44.6562 40.4688 44.5651 40.0625 44.3828C39.6615 44.2005 39.3438 43.9245 39.1094 43.5547C38.8802 43.1849 38.7656 42.7161 38.7656 42.1484C38.7656 41.2943 39.1042 40.638 39.7812 40.1797C40.4583 39.7214 41.4896 39.4714 42.875 39.4297L44.3516 39.3672V38.8438C44.3516 38.1042 44.1927 37.5859 43.875 37.2891C43.5573 36.9922 43.1094 36.8438 42.5312 36.8438C42.0833 36.8438 41.6562 36.9089 41.25 37.0391C40.8438 37.1693 40.4583 37.3229 40.0938 37.5L39.6953 36.5156C40.0807 36.3177 40.5234 36.1484 41.0234 36.0078C41.5234 35.8672 42.0495 35.7969 42.6016 35.7969ZM44.3359 40.2812L43.0312 40.3359C41.9635 40.3776 41.2109 40.5521 40.7734 40.8594C40.3359 41.1667 40.1172 41.6016 40.1172 42.1641C40.1172 42.6536 40.2656 43.0156 40.5625 43.25C40.8594 43.4844 41.2526 43.6016 41.7422 43.6016C42.5026 43.6016 43.125 43.3906 43.6094 42.9688C44.0938 42.5469 44.3359 41.9141 44.3359 41.0703V40.2812ZM49.5938 44.5H48.2891V32.3438H49.5938V44.5ZM65.6172 44.5H64.0859L57.8594 34.9062H57.7969C57.8125 35.1615 57.8307 35.4531 57.8516 35.7812C57.8724 36.1042 57.888 36.4505 57.8984 36.8203C57.9141 37.1849 57.9219 37.5573 57.9219 37.9375V44.5H56.6875V33.0781H58.2109L64.4141 42.6406H64.4688C64.4583 42.4583 64.4453 42.2005 64.4297 41.8672C64.4141 41.5286 64.3984 41.1667 64.3828 40.7812C64.3724 40.3906 64.3672 40.0286 64.3672 39.6953V33.0781H65.6172V44.5ZM75.9219 40.2031C75.9219 40.9062 75.8307 41.5339 75.6484 42.0859C75.4661 42.638 75.2031 43.1042 74.8594 43.4844C74.5156 43.8646 74.099 44.1562 73.6094 44.3594C73.125 44.5573 72.5755 44.6562 71.9609 44.6562C71.388 44.6562 70.862 44.5573 70.3828 44.3594C69.9089 44.1562 69.4974 43.8646 69.1484 43.4844C68.8047 43.1042 68.5365 42.638 68.3438 42.0859C68.1562 41.5339 68.0625 40.9062 68.0625 40.2031C68.0625 39.2656 68.2214 38.4688 68.5391 37.8125C68.8568 37.151 69.3099 36.6484 69.8984 36.3047C70.4922 35.9557 71.1979 35.7812 72.0156 35.7812C72.7969 35.7812 73.4792 35.9557 74.0625 36.3047C74.651 36.6536 75.1068 37.1589 75.4297 37.8203C75.7578 38.4766 75.9219 39.2708 75.9219 40.2031ZM69.4062 40.2031C69.4062 40.8906 69.4974 41.487 69.6797 41.9922C69.862 42.4974 70.1432 42.888 70.5234 43.1641C70.9036 43.4401 71.3932 43.5781 71.9922 43.5781C72.5859 43.5781 73.0729 43.4401 73.4531 43.1641C73.8385 42.888 74.1224 42.4974 74.3047 41.9922C74.487 41.487 74.5781 40.8906 74.5781 40.2031C74.5781 39.5208 74.487 38.9323 74.3047 38.4375C74.1224 37.9375 73.8411 37.5521 73.4609 37.2812C73.0807 37.0104 72.5885 36.875 71.9844 36.875C71.0938 36.875 70.4401 37.1693 70.0234 37.7578C69.612 38.3464 69.4062 39.1615 69.4062 40.2031ZM80.9297 43.5938C81.1432 43.5938 81.362 43.5755 81.5859 43.5391C81.8099 43.5026 81.9922 43.4583 82.1328 43.4062V44.4141C81.9818 44.4818 81.7708 44.5391 81.5 44.5859C81.2344 44.6328 80.974 44.6562 80.7188 44.6562C80.2656 44.6562 79.8542 44.5781 79.4844 44.4219C79.1146 44.2604 78.8177 43.9896 78.5938 43.6094C78.375 43.2292 78.2656 42.7031 78.2656 42.0312V36.9531H77.0469V36.3203L78.2734 35.8125L78.7891 33.9531H79.5703V35.9375H82.0781V36.9531H79.5703V41.9922C79.5703 42.5286 79.6927 42.9297 79.9375 43.1953C80.1875 43.4609 80.5182 43.5938 80.9297 43.5938ZM85.1641 35.9375V44.5H83.8672V35.9375H85.1641ZM84.5312 32.7344C84.7448 32.7344 84.9271 32.8047 85.0781 32.9453C85.2344 33.0807 85.3125 33.2943 85.3125 33.5859C85.3125 33.8724 85.2344 34.0859 85.0781 34.2266C84.9271 34.3672 84.7448 34.4375 84.5312 34.4375C84.3073 34.4375 84.1198 34.3672 83.9688 34.2266C83.8229 34.0859 83.75 33.8724 83.75 33.5859C83.75 33.2943 83.8229 33.0807 83.9688 32.9453C84.1198 32.8047 84.3073 32.7344 84.5312 32.7344ZM91.3438 44.6562C90.5729 44.6562 89.8932 44.4974 89.3047 44.1797C88.7161 43.862 88.2578 43.3776 87.9297 42.7266C87.6016 42.0755 87.4375 41.2552 87.4375 40.2656C87.4375 39.2292 87.6094 38.3828 87.9531 37.7266C88.3021 37.0651 88.7812 36.5755 89.3906 36.2578C90 35.9401 90.6927 35.7812 91.4688 35.7812C91.8958 35.7812 92.3073 35.8255 92.7031 35.9141C93.1042 35.9974 93.4323 36.1042 93.6875 36.2344L93.2969 37.3203C93.0365 37.2161 92.7344 37.1224 92.3906 37.0391C92.0521 36.9557 91.7344 36.9141 91.4375 36.9141C90.8438 36.9141 90.349 37.0417 89.9531 37.2969C89.5625 37.5521 89.2682 37.9271 89.0703 38.4219C88.8776 38.9167 88.7812 39.526 88.7812 40.25C88.7812 40.9427 88.875 41.5339 89.0625 42.0234C89.2552 42.513 89.5391 42.888 89.9141 43.1484C90.2943 43.4036 90.7682 43.5312 91.3359 43.5312C91.7891 43.5312 92.1979 43.4844 92.5625 43.3906C92.9271 43.2917 93.2578 43.1771 93.5547 43.0469V44.2031C93.2682 44.349 92.9479 44.4609 92.5938 44.5391C92.2448 44.6172 91.8281 44.6562 91.3438 44.6562ZM98.8828 35.7812C99.612 35.7812 100.237 35.9427 100.758 36.2656C101.279 36.5885 101.677 37.0417 101.953 37.625C102.229 38.2031 102.367 38.8802 102.367 39.6562V40.4609H96.4531C96.4688 41.4661 96.7188 42.2318 97.2031 42.7578C97.6875 43.2839 98.3698 43.5469 99.25 43.5469C99.7917 43.5469 100.271 43.4974 100.688 43.3984C101.104 43.2995 101.536 43.1536 101.984 42.9609V44.1016C101.552 44.2943 101.122 44.4349 100.695 44.5234C100.273 44.612 99.7734 44.6562 99.1953 44.6562C98.3724 44.6562 97.6536 44.4896 97.0391 44.1562C96.4297 43.8177 95.9557 43.3229 95.6172 42.6719C95.2786 42.0208 95.1094 41.224 95.1094 40.2812C95.1094 39.3594 95.263 38.5625 95.5703 37.8906C95.8828 37.2135 96.3203 36.6927 96.8828 36.3281C97.4505 35.9635 98.1172 35.7812 98.8828 35.7812ZM98.8672 36.8438C98.1745 36.8438 97.6224 37.0703 97.2109 37.5234C96.7995 37.9766 96.5547 38.6094 96.4766 39.4219H101.008C101.003 38.9115 100.922 38.4635 100.766 38.0781C100.615 37.6875 100.383 37.3854 100.07 37.1719C99.7578 36.9531 99.3568 36.8438 98.8672 36.8438Z" fill="white"/>
</svg>
