<svg width="80" height="76" viewBox="0 0 80 76" fill="none" xmlns="http://www.w3.org/2000/svg">
<mask id="mask0_268712_8799" style="mask-type:alpha" maskUnits="userSpaceOnUse" x="28" y="14" width="24" height="25">
<rect x="28" y="14.5" width="24" height="24" fill="#D9D9D9"/>
</mask>
<g mask="url(#mask0_268712_8799)">
<mask id="mask1_268712_8799" style="mask-type:alpha" maskUnits="userSpaceOnUse" x="30" y="16" width="26" height="27">
<rect x="30" y="16.5342" width="26" height="26" fill="#D9D9D9"/>
</mask>
<g mask="url(#mask1_268712_8799)">
<path d="M40.8667 34.3273C40.6211 34.3273 40.4153 34.2442 40.2492 34.0781C40.0831 33.912 40 33.7062 40 33.4606C40 33.2151 40.0831 33.0092 40.2492 32.8431C40.4153 32.677 40.6211 32.594 40.8667 32.594H46.0667V20.4606H40.8667C40.6211 20.4606 40.4153 20.3776 40.2492 20.2115C40.0831 20.0454 40 19.8395 40 19.594C40 19.3484 40.0831 19.1426 40.2492 18.9765C40.4153 18.8104 40.6211 18.7273 40.8667 18.7273H46.0667C46.5433 18.7273 46.9514 18.897 47.2908 19.2365C47.6303 19.5759 47.8 19.984 47.8 20.4606V32.594C47.8 33.0706 47.6303 33.4787 47.2908 33.8181C46.9514 34.1576 46.5433 34.3273 46.0667 34.3273H40.8667ZM39.285 27.394H33.0667C32.8211 27.394 32.6153 27.3109 32.4492 27.1448C32.2831 26.9787 32.2 26.7729 32.2 26.5273C32.2 26.2817 32.2831 26.0759 32.4492 25.9098C32.6153 25.7437 32.8211 25.6606 33.0667 25.6606H39.285L37.66 24.0356C37.5011 23.8767 37.4217 23.6817 37.4217 23.4506C37.4217 23.2195 37.5011 23.0173 37.66 22.844C37.8189 22.6706 38.0211 22.5804 38.2667 22.5731C38.5122 22.5659 38.7217 22.649 38.895 22.8223L41.9933 25.9206C42.1667 26.094 42.2533 26.2962 42.2533 26.5273C42.2533 26.7584 42.1667 26.9606 41.9933 27.134L38.895 30.2323C38.7217 30.4056 38.5158 30.4887 38.2775 30.4815C38.0392 30.4742 37.8333 30.384 37.66 30.2106C37.5011 30.0373 37.4253 29.8315 37.4325 29.5931C37.4397 29.3548 37.5228 29.1562 37.6817 28.9973L39.285 27.394Z" fill="#CDCDCD"/>
</g>
</g>
<path d="M18.5625 58.5V47.0781H19.8906V57.3125H24.9609V58.5H18.5625ZM34.1094 54.2031C34.1094 54.9062 34.0182 55.5339 33.8359 56.0859C33.6536 56.638 33.3906 57.1042 33.0469 57.4844C32.7031 57.8646 32.2865 58.1562 31.7969 58.3594C31.3125 58.5573 30.763 58.6562 30.1484 58.6562C29.5755 58.6562 29.0495 58.5573 28.5703 58.3594C28.0964 58.1562 27.6849 57.8646 27.3359 57.4844C26.9922 57.1042 26.724 56.638 26.5312 56.0859C26.3438 55.5339 26.25 54.9062 26.25 54.2031C26.25 53.2656 26.4089 52.4688 26.7266 51.8125C27.0443 51.151 27.4974 50.6484 28.0859 50.3047C28.6797 49.9557 29.3854 49.7812 30.2031 49.7812C30.9844 49.7812 31.6667 49.9557 32.25 50.3047C32.8385 50.6536 33.2943 51.1589 33.6172 51.8203C33.9453 52.4766 34.1094 53.2708 34.1094 54.2031ZM27.5938 54.2031C27.5938 54.8906 27.6849 55.487 27.8672 55.9922C28.0495 56.4974 28.3307 56.888 28.7109 57.1641C29.0911 57.4401 29.5807 57.5781 30.1797 57.5781C30.7734 57.5781 31.2604 57.4401 31.6406 57.1641C32.026 56.888 32.3099 56.4974 32.4922 55.9922C32.6745 55.487 32.7656 54.8906 32.7656 54.2031C32.7656 53.5208 32.6745 52.9323 32.4922 52.4375C32.3099 51.9375 32.0286 51.5521 31.6484 51.2812C31.2682 51.0104 30.776 50.875 30.1719 50.875C29.2812 50.875 28.6276 51.1693 28.2109 51.7578C27.7995 52.3464 27.5938 53.1615 27.5938 54.2031ZM38.7422 62.3438C37.6172 62.3438 36.75 62.1328 36.1406 61.7109C35.5312 61.2943 35.2266 60.7083 35.2266 59.9531C35.2266 59.4167 35.3958 58.9583 35.7344 58.5781C36.0781 58.1979 36.5521 57.9453 37.1562 57.8203C36.9323 57.7161 36.7396 57.5599 36.5781 57.3516C36.4219 57.1432 36.3438 56.9036 36.3438 56.6328C36.3438 56.3203 36.4297 56.0469 36.6016 55.8125C36.7786 55.5729 37.0469 55.3438 37.4062 55.125C36.9583 54.9427 36.5938 54.6354 36.3125 54.2031C36.0365 53.7656 35.8984 53.2578 35.8984 52.6797C35.8984 52.0651 36.026 51.5417 36.2812 51.1094C36.5365 50.6719 36.9062 50.3385 37.3906 50.1094C37.875 49.8802 38.4609 49.7656 39.1484 49.7656C39.2995 49.7656 39.4505 49.7734 39.6016 49.7891C39.7578 49.7995 39.9062 49.8177 40.0469 49.8438C40.1875 49.8646 40.3099 49.8906 40.4141 49.9219H43.3516V50.7578L41.7734 50.9531C41.9297 51.1562 42.0599 51.401 42.1641 51.6875C42.2682 51.974 42.3203 52.2917 42.3203 52.6406C42.3203 53.4948 42.0312 54.1745 41.4531 54.6797C40.875 55.1797 40.0807 55.4297 39.0703 55.4297C38.8307 55.4297 38.5859 55.4089 38.3359 55.3672C38.0807 55.5078 37.8854 55.6641 37.75 55.8359C37.6198 56.0078 37.5547 56.2057 37.5547 56.4297C37.5547 56.5964 37.6042 56.7292 37.7031 56.8281C37.8073 56.9271 37.9557 57 38.1484 57.0469C38.3411 57.0885 38.5729 57.1094 38.8438 57.1094H40.3516C41.2839 57.1094 41.9974 57.3047 42.4922 57.6953C42.9922 58.0859 43.2422 58.6562 43.2422 59.4062C43.2422 60.3542 42.8568 61.0807 42.0859 61.5859C41.3151 62.0911 40.2005 62.3438 38.7422 62.3438ZM38.7812 61.3281C39.4896 61.3281 40.0755 61.2552 40.5391 61.1094C41.0078 60.9688 41.3568 60.763 41.5859 60.4922C41.8203 60.2266 41.9375 59.9089 41.9375 59.5391C41.9375 59.1953 41.8594 58.9349 41.7031 58.7578C41.5469 58.5859 41.3177 58.4714 41.0156 58.4141C40.7135 58.3516 40.3438 58.3203 39.9062 58.3203H38.4219C38.0365 58.3203 37.7005 58.3802 37.4141 58.5C37.1276 58.6198 36.9062 58.7969 36.75 59.0312C36.599 59.2656 36.5234 59.5573 36.5234 59.9062C36.5234 60.3698 36.7188 60.7214 37.1094 60.9609C37.5 61.2057 38.0573 61.3281 38.7812 61.3281ZM39.1172 54.4844C39.737 54.4844 40.2031 54.3281 40.5156 54.0156C40.8281 53.7031 40.9844 53.2474 40.9844 52.6484C40.9844 52.0078 40.8255 51.5286 40.5078 51.2109C40.1901 50.888 39.7214 50.7266 39.1016 50.7266C38.5078 50.7266 38.0495 50.8932 37.7266 51.2266C37.4089 51.5547 37.25 52.0365 37.25 52.6719C37.25 53.2552 37.4115 53.7031 37.7344 54.0156C38.0573 54.3281 38.5182 54.4844 39.1172 54.4844ZM49.3906 58.5V47.0781H50.7188V58.5H49.3906ZM57.7188 49.7812C58.7344 49.7812 59.5026 50.0312 60.0234 50.5312C60.5443 51.026 60.8047 51.8229 60.8047 52.9219V58.5H59.5234V53.0078C59.5234 52.2943 59.3594 51.7604 59.0312 51.4062C58.7083 51.0521 58.2109 50.875 57.5391 50.875C56.5911 50.875 55.9245 51.1432 55.5391 51.6797C55.1536 52.2161 54.9609 52.9948 54.9609 54.0156V58.5H53.6641V49.9375H54.7109L54.9062 51.1719H54.9766C55.1589 50.8698 55.3906 50.6172 55.6719 50.4141C55.9531 50.2057 56.2682 50.0495 56.6172 49.9453C56.9661 49.8359 57.3333 49.7812 57.7188 49.7812Z" fill="#CDCDCD"/>
</svg>
