<svg width="100" height="76" viewBox="0 0 100 76" fill="none" xmlns="http://www.w3.org/2000/svg">
<path d="M4.54688 33.0781C6.02083 33.0781 7.09635 33.3672 7.77344 33.9453C8.45573 34.5182 8.79688 35.3411 8.79688 36.4141C8.79688 36.8984 8.71615 37.3594 8.55469 37.7969C8.39844 38.2292 8.14323 38.612 7.78906 38.9453C7.4349 39.2734 6.96875 39.5339 6.39062 39.7266C5.81771 39.9141 5.11458 40.0078 4.28125 40.0078H2.89062V44.5H1.5625V33.0781H4.54688ZM4.42188 34.2109H2.89062V38.8672H4.13281C4.86198 38.8672 5.46875 38.7891 5.95312 38.6328C6.44271 38.4766 6.8099 38.224 7.05469 37.875C7.29948 37.5208 7.42188 37.0521 7.42188 36.4688C7.42188 35.7083 7.17969 35.1432 6.69531 34.7734C6.21094 34.3984 5.45312 34.2109 4.42188 34.2109ZM14.8828 35.7812C15.0547 35.7812 15.2344 35.7917 15.4219 35.8125C15.6094 35.8281 15.776 35.8516 15.9219 35.8828L15.7578 37.0859C15.6172 37.0495 15.4609 37.0208 15.2891 37C15.1172 36.9792 14.9557 36.9688 14.8047 36.9688C14.4609 36.9688 14.1354 37.0391 13.8281 37.1797C13.526 37.3151 13.2604 37.513 13.0312 37.7734C12.8021 38.0286 12.6224 38.3385 12.4922 38.7031C12.362 39.0625 12.2969 39.4635 12.2969 39.9062V44.5H10.9922V35.9375H12.0703L12.2109 37.5156H12.2656C12.4427 37.1979 12.6562 36.9089 12.9062 36.6484C13.1562 36.3828 13.4453 36.1719 13.7734 36.0156C14.1068 35.8594 14.4766 35.7812 14.8828 35.7812ZM18.8359 35.9375V44.5H17.5391V35.9375H18.8359ZM18.2031 32.7344C18.4167 32.7344 18.599 32.8047 18.75 32.9453C18.9062 33.0807 18.9844 33.2943 18.9844 33.5859C18.9844 33.8724 18.9062 34.0859 18.75 34.2266C18.599 34.3672 18.4167 34.4375 18.2031 34.4375C17.9792 34.4375 17.7917 34.3672 17.6406 34.2266C17.4948 34.0859 17.4219 33.8724 17.4219 33.5859C17.4219 33.2943 17.4948 33.0807 17.6406 32.9453C17.7917 32.8047 17.9792 32.7344 18.2031 32.7344ZM23.4688 44.5L20.2188 35.9375H21.6094L23.4922 41.1172C23.6224 41.4714 23.7552 41.862 23.8906 42.2891C24.026 42.7161 24.1198 43.0599 24.1719 43.3203H24.2266C24.2891 43.0599 24.3932 42.7161 24.5391 42.2891C24.6849 41.8568 24.8177 41.4661 24.9375 41.1172L26.8203 35.9375H28.2109L24.9531 44.5H23.4688ZM32.7891 35.7969C33.8099 35.7969 34.5677 36.026 35.0625 36.4844C35.5573 36.9427 35.8047 37.6745 35.8047 38.6797V44.5H34.8594L34.6094 43.2344H34.5469C34.3073 43.5469 34.0573 43.8099 33.7969 44.0234C33.5365 44.2318 33.2344 44.3906 32.8906 44.5C32.5521 44.6042 32.1354 44.6562 31.6406 44.6562C31.1198 44.6562 30.6562 44.5651 30.25 44.3828C29.849 44.2005 29.5312 43.9245 29.2969 43.5547C29.0677 43.1849 28.9531 42.7161 28.9531 42.1484C28.9531 41.2943 29.2917 40.638 29.9688 40.1797C30.6458 39.7214 31.6771 39.4714 33.0625 39.4297L34.5391 39.3672V38.8438C34.5391 38.1042 34.3802 37.5859 34.0625 37.2891C33.7448 36.9922 33.2969 36.8438 32.7188 36.8438C32.2708 36.8438 31.8438 36.9089 31.4375 37.0391C31.0312 37.1693 30.6458 37.3229 30.2812 37.5L29.8828 36.5156C30.2682 36.3177 30.7109 36.1484 31.2109 36.0078C31.7109 35.8672 32.237 35.7969 32.7891 35.7969ZM34.5234 40.2812L33.2188 40.3359C32.151 40.3776 31.3984 40.5521 30.9609 40.8594C30.5234 41.1667 30.3047 41.6016 30.3047 42.1641C30.3047 42.6536 30.4531 43.0156 30.75 43.25C31.0469 43.4844 31.4401 43.6016 31.9297 43.6016C32.6901 43.6016 33.3125 43.3906 33.7969 42.9688C34.2812 42.5469 34.5234 41.9141 34.5234 41.0703V40.2812ZM41.9062 44.6562C41.1354 44.6562 40.4557 44.4974 39.8672 44.1797C39.2786 43.862 38.8203 43.3776 38.4922 42.7266C38.1641 42.0755 38 41.2552 38 40.2656C38 39.2292 38.1719 38.3828 38.5156 37.7266C38.8646 37.0651 39.3438 36.5755 39.9531 36.2578C40.5625 35.9401 41.2552 35.7812 42.0312 35.7812C42.4583 35.7812 42.8698 35.8255 43.2656 35.9141C43.6667 35.9974 43.9948 36.1042 44.25 36.2344L43.8594 37.3203C43.599 37.2161 43.2969 37.1224 42.9531 37.0391C42.6146 36.9557 42.2969 36.9141 42 36.9141C41.4062 36.9141 40.9115 37.0417 40.5156 37.2969C40.125 37.5521 39.8307 37.9271 39.6328 38.4219C39.4401 38.9167 39.3438 39.526 39.3438 40.25C39.3438 40.9427 39.4375 41.5339 39.625 42.0234C39.8177 42.513 40.1016 42.888 40.4766 43.1484C40.8568 43.4036 41.3307 43.5312 41.8984 43.5312C42.3516 43.5312 42.7604 43.4844 43.125 43.3906C43.4896 43.2917 43.8203 43.1771 44.1172 43.0469V44.2031C43.8307 44.349 43.5104 44.4609 43.1562 44.5391C42.8073 44.6172 42.3906 44.6562 41.9062 44.6562ZM44.7969 35.9375H46.1875L48.0781 40.9062C48.1875 41.1979 48.2891 41.4792 48.3828 41.75C48.4766 42.0156 48.5599 42.2708 48.6328 42.5156C48.7057 42.7604 48.763 42.9974 48.8047 43.2266H48.8594C48.9323 42.9661 49.0365 42.625 49.1719 42.2031C49.3073 41.776 49.4531 41.3411 49.6094 40.8984L51.3984 35.9375H52.7969L49.0703 45.7578C48.8724 46.2839 48.6406 46.7422 48.375 47.1328C48.1146 47.5234 47.7969 47.8229 47.4219 48.0312C47.0469 48.2448 46.5938 48.3516 46.0625 48.3516C45.8177 48.3516 45.6016 48.3359 45.4141 48.3047C45.2266 48.2786 45.0651 48.2474 44.9297 48.2109V47.1719C45.0443 47.1979 45.1823 47.2214 45.3438 47.2422C45.5104 47.263 45.6823 47.2734 45.8594 47.2734C46.1823 47.2734 46.4609 47.2109 46.6953 47.0859C46.9349 46.9661 47.1406 46.7891 47.3125 46.5547C47.4844 46.3203 47.6328 46.0417 47.7578 45.7188L48.2266 44.5156L44.7969 35.9375ZM61.5 33.0781C62.974 33.0781 64.0495 33.3672 64.7266 33.9453C65.4089 34.5182 65.75 35.3411 65.75 36.4141C65.75 36.8984 65.6693 37.3594 65.5078 37.7969C65.3516 38.2292 65.0964 38.612 64.7422 38.9453C64.388 39.2734 63.9219 39.5339 63.3438 39.7266C62.7708 39.9141 62.0677 40.0078 61.2344 40.0078H59.8438V44.5H58.5156V33.0781H61.5ZM61.375 34.2109H59.8438V38.8672H61.0859C61.8151 38.8672 62.4219 38.7891 62.9062 38.6328C63.3958 38.4766 63.763 38.224 64.0078 37.875C64.2526 37.5208 64.375 37.0521 64.375 36.4688C64.375 35.7083 64.1328 35.1432 63.6484 34.7734C63.1641 34.3984 62.4062 34.2109 61.375 34.2109ZM75.3281 40.2031C75.3281 40.9062 75.237 41.5339 75.0547 42.0859C74.8724 42.638 74.6094 43.1042 74.2656 43.4844C73.9219 43.8646 73.5052 44.1562 73.0156 44.3594C72.5312 44.5573 71.9818 44.6562 71.3672 44.6562C70.7943 44.6562 70.2682 44.5573 69.7891 44.3594C69.3151 44.1562 68.9036 43.8646 68.5547 43.4844C68.2109 43.1042 67.9427 42.638 67.75 42.0859C67.5625 41.5339 67.4688 40.9062 67.4688 40.2031C67.4688 39.2656 67.6276 38.4688 67.9453 37.8125C68.263 37.151 68.7161 36.6484 69.3047 36.3047C69.8984 35.9557 70.6042 35.7812 71.4219 35.7812C72.2031 35.7812 72.8854 35.9557 73.4688 36.3047C74.0573 36.6536 74.513 37.1589 74.8359 37.8203C75.1641 38.4766 75.3281 39.2708 75.3281 40.2031ZM68.8125 40.2031C68.8125 40.8906 68.9036 41.487 69.0859 41.9922C69.2682 42.4974 69.5495 42.888 69.9297 43.1641C70.3099 43.4401 70.7995 43.5781 71.3984 43.5781C71.9922 43.5781 72.4792 43.4401 72.8594 43.1641C73.2448 42.888 73.5286 42.4974 73.7109 41.9922C73.8932 41.487 73.9844 40.8906 73.9844 40.2031C73.9844 39.5208 73.8932 38.9323 73.7109 38.4375C73.5286 37.9375 73.2474 37.5521 72.8672 37.2812C72.487 37.0104 71.9948 36.875 71.3906 36.875C70.5 36.875 69.8464 37.1693 69.4297 37.7578C69.0182 38.3464 68.8125 39.1615 68.8125 40.2031ZM78.875 44.5H77.5703V32.3438H78.875V44.5ZM82.9141 35.9375V44.5H81.6172V35.9375H82.9141ZM82.2812 32.7344C82.4948 32.7344 82.6771 32.8047 82.8281 32.9453C82.9844 33.0807 83.0625 33.2943 83.0625 33.5859C83.0625 33.8724 82.9844 34.0859 82.8281 34.2266C82.6771 34.3672 82.4948 34.4375 82.2812 34.4375C82.0573 34.4375 81.8698 34.3672 81.7188 34.2266C81.5729 34.0859 81.5 33.8724 81.5 33.5859C81.5 33.2943 81.5729 33.0807 81.7188 32.9453C81.8698 32.8047 82.0573 32.7344 82.2812 32.7344ZM89.0938 44.6562C88.3229 44.6562 87.6432 44.4974 87.0547 44.1797C86.4661 43.862 86.0078 43.3776 85.6797 42.7266C85.3516 42.0755 85.1875 41.2552 85.1875 40.2656C85.1875 39.2292 85.3594 38.3828 85.7031 37.7266C86.0521 37.0651 86.5312 36.5755 87.1406 36.2578C87.75 35.9401 88.4427 35.7812 89.2188 35.7812C89.6458 35.7812 90.0573 35.8255 90.4531 35.9141C90.8542 35.9974 91.1823 36.1042 91.4375 36.2344L91.0469 37.3203C90.7865 37.2161 90.4844 37.1224 90.1406 37.0391C89.8021 36.9557 89.4844 36.9141 89.1875 36.9141C88.5938 36.9141 88.099 37.0417 87.7031 37.2969C87.3125 37.5521 87.0182 37.9271 86.8203 38.4219C86.6276 38.9167 86.5312 39.526 86.5312 40.25C86.5312 40.9427 86.625 41.5339 86.8125 42.0234C87.0052 42.513 87.2891 42.888 87.6641 43.1484C88.0443 43.4036 88.5182 43.5312 89.0859 43.5312C89.5391 43.5312 89.9479 43.4844 90.3125 43.3906C90.6771 43.2917 91.0078 43.1771 91.3047 43.0469V44.2031C91.0182 44.349 90.6979 44.4609 90.3438 44.5391C89.9948 44.6172 89.5781 44.6562 89.0938 44.6562ZM91.9844 35.9375H93.375L95.2656 40.9062C95.375 41.1979 95.4766 41.4792 95.5703 41.75C95.6641 42.0156 95.7474 42.2708 95.8203 42.5156C95.8932 42.7604 95.9505 42.9974 95.9922 43.2266H96.0469C96.1198 42.9661 96.224 42.625 96.3594 42.2031C96.4948 41.776 96.6406 41.3411 96.7969 40.8984L98.5859 35.9375H99.9844L96.2578 45.7578C96.0599 46.2839 95.8281 46.7422 95.5625 47.1328C95.3021 47.5234 94.9844 47.8229 94.6094 48.0312C94.2344 48.2448 93.7812 48.3516 93.25 48.3516C93.0052 48.3516 92.7891 48.3359 92.6016 48.3047C92.4141 48.2786 92.2526 48.2474 92.1172 48.2109V47.1719C92.2318 47.1979 92.3698 47.2214 92.5312 47.2422C92.6979 47.263 92.8698 47.2734 93.0469 47.2734C93.3698 47.2734 93.6484 47.2109 93.8828 47.0859C94.1224 46.9661 94.3281 46.7891 94.5 46.5547C94.6719 46.3203 94.8203 46.0417 94.9453 45.7188L95.4141 44.5156L91.9844 35.9375Z" fill="white"/>
</svg>
