<svg width="80" height="76" viewBox="0 0 80 76" fill="none" xmlns="http://www.w3.org/2000/svg">
<path d="M48.1818 16.5H31.8182C30.814 16.5 30 17.315 30 18.3191C30 18.3449 30 18.363 30 18.372V34.7356C30 35.7101 30.7909 36.5 31.7653 36.5C31.791 36.5 31.8091 36.5 31.8182 36.5H48.1818C48.1909 36.5 48.209 36.5 48.2347 36.5C49.2091 36.5 50 35.7101 50 34.7356V18.372C50 18.363 50 18.3449 50 18.3191C50 17.315 49.186 16.5 48.1818 16.5ZM41.8182 34.7356H31.8182V27.4629H41.8182V34.7356ZM41.8182 25.6447H31.8182V18.372L41.8182 18.372V25.6447ZM48.1818 34.7356H43.6364V18.372H48.1818V34.7356Z" fill="#CDCDCD"/>
<path d="M12.0078 55.4609C12.0078 56.138 11.8385 56.7161 11.5 57.1953C11.1667 57.6693 10.6979 58.0312 10.0938 58.2812C9.48958 58.5312 8.77865 58.6562 7.96094 58.6562C7.52865 58.6562 7.11979 58.6354 6.73438 58.5938C6.34896 58.5521 5.99479 58.4922 5.67188 58.4141C5.34896 58.3359 5.0651 58.2396 4.82031 58.125V56.8516C5.21094 57.013 5.6875 57.1641 6.25 57.3047C6.8125 57.4401 7.40104 57.5078 8.01562 57.5078C8.58854 57.5078 9.07292 57.4323 9.46875 57.2812C9.86458 57.125 10.1641 56.9036 10.3672 56.6172C10.5755 56.3255 10.6797 55.9766 10.6797 55.5703C10.6797 55.1797 10.5938 54.8542 10.4219 54.5938C10.25 54.3281 9.96354 54.0885 9.5625 53.875C9.16667 53.6562 8.625 53.4245 7.9375 53.1797C7.45312 53.0078 7.02604 52.8203 6.65625 52.6172C6.28646 52.4089 5.97656 52.1745 5.72656 51.9141C5.47656 51.6536 5.28646 51.3516 5.15625 51.0078C5.03125 50.6641 4.96875 50.2708 4.96875 49.8281C4.96875 49.2188 5.1224 48.6979 5.42969 48.2656C5.74219 47.8281 6.17188 47.4948 6.71875 47.2656C7.27083 47.0312 7.90365 46.9141 8.61719 46.9141C9.22656 46.9141 9.78906 46.9714 10.3047 47.0859C10.8255 47.2005 11.3021 47.3542 11.7344 47.5469L11.3203 48.6875C10.9089 48.5156 10.4714 48.3724 10.0078 48.2578C9.54948 48.1432 9.07552 48.0859 8.58594 48.0859C8.09635 48.0859 7.68229 48.1589 7.34375 48.3047C7.01042 48.4453 6.75521 48.6458 6.57812 48.9062C6.40104 49.1667 6.3125 49.4766 6.3125 49.8359C6.3125 50.237 6.39583 50.5703 6.5625 50.8359C6.73438 51.1016 7.00521 51.3385 7.375 51.5469C7.75 51.75 8.24479 51.9635 8.85938 52.1875C9.53125 52.4323 10.1016 52.6927 10.5703 52.9688C11.0391 53.2396 11.3958 53.5729 11.6406 53.9688C11.8854 54.3594 12.0078 54.8568 12.0078 55.4609ZM21.2188 49.9375V58.5H20.1562L19.9688 57.2969H19.8984C19.7214 57.5938 19.4922 57.8438 19.2109 58.0469C18.9297 58.25 18.612 58.401 18.2578 58.5C17.9089 58.6042 17.5365 58.6562 17.1406 58.6562C16.4635 58.6562 15.8958 58.5469 15.4375 58.3281C14.9792 58.1094 14.6328 57.7708 14.3984 57.3125C14.1693 56.8542 14.0547 56.2656 14.0547 55.5469V49.9375H15.3672V55.4531C15.3672 56.1667 15.5286 56.7005 15.8516 57.0547C16.1745 57.4036 16.6667 57.5781 17.3281 57.5781C17.9635 57.5781 18.4688 57.4583 18.8438 57.2188C19.224 56.9792 19.4974 56.6276 19.6641 56.1641C19.8307 55.6953 19.9141 55.1224 19.9141 54.4453V49.9375H21.2188ZM33.2578 49.7812C34.2005 49.7812 34.9115 50.0286 35.3906 50.5234C35.8698 51.013 36.1094 51.8021 36.1094 52.8906V58.5H34.8281V52.9531C34.8281 52.2604 34.6771 51.7422 34.375 51.3984C34.0781 51.0495 33.6354 50.875 33.0469 50.875C32.2188 50.875 31.6172 51.1146 31.2422 51.5938C30.8672 52.0729 30.6797 52.7786 30.6797 53.7109V58.5H29.3906V52.9531C29.3906 52.4896 29.3229 52.1042 29.1875 51.7969C29.0573 51.4896 28.8594 51.2604 28.5938 51.1094C28.3333 50.9531 28.0026 50.875 27.6016 50.875C27.0339 50.875 26.5781 50.9922 26.2344 51.2266C25.8906 51.4609 25.6406 51.8099 25.4844 52.2734C25.3333 52.7318 25.2578 53.2969 25.2578 53.9688V58.5H23.9609V49.9375H25.0078L25.2031 51.1484H25.2734C25.4453 50.8516 25.6615 50.6016 25.9219 50.3984C26.1823 50.1953 26.474 50.0417 26.7969 49.9375C27.1198 49.8333 27.4635 49.7812 27.8281 49.7812C28.4792 49.7812 29.0234 49.9036 29.4609 50.1484C29.9036 50.388 30.224 50.7552 30.4219 51.25H30.4922C30.7734 50.7552 31.1589 50.388 31.6484 50.1484C32.138 49.9036 32.6745 49.7812 33.2578 49.7812ZM48.0703 49.7812C49.013 49.7812 49.724 50.0286 50.2031 50.5234C50.6823 51.013 50.9219 51.8021 50.9219 52.8906V58.5H49.6406V52.9531C49.6406 52.2604 49.4896 51.7422 49.1875 51.3984C48.8906 51.0495 48.4479 50.875 47.8594 50.875C47.0312 50.875 46.4297 51.1146 46.0547 51.5938C45.6797 52.0729 45.4922 52.7786 45.4922 53.7109V58.5H44.2031V52.9531C44.2031 52.4896 44.1354 52.1042 44 51.7969C43.8698 51.4896 43.6719 51.2604 43.4062 51.1094C43.1458 50.9531 42.8151 50.875 42.4141 50.875C41.8464 50.875 41.3906 50.9922 41.0469 51.2266C40.7031 51.4609 40.4531 51.8099 40.2969 52.2734C40.1458 52.7318 40.0703 53.2969 40.0703 53.9688V58.5H38.7734V49.9375H39.8203L40.0156 51.1484H40.0859C40.2578 50.8516 40.474 50.6016 40.7344 50.3984C40.9948 50.1953 41.2865 50.0417 41.6094 49.9375C41.9323 49.8333 42.276 49.7812 42.6406 49.7812C43.2917 49.7812 43.8359 49.9036 44.2734 50.1484C44.7161 50.388 45.0365 50.7552 45.2344 51.25H45.3047C45.5859 50.7552 45.9714 50.388 46.4609 50.1484C46.9505 49.9036 47.487 49.7812 48.0703 49.7812ZM56.7891 49.7969C57.8099 49.7969 58.5677 50.026 59.0625 50.4844C59.5573 50.9427 59.8047 51.6745 59.8047 52.6797V58.5H58.8594L58.6094 57.2344H58.5469C58.3073 57.5469 58.0573 57.8099 57.7969 58.0234C57.5365 58.2318 57.2344 58.3906 56.8906 58.5C56.5521 58.6042 56.1354 58.6562 55.6406 58.6562C55.1198 58.6562 54.6562 58.5651 54.25 58.3828C53.849 58.2005 53.5312 57.9245 53.2969 57.5547C53.0677 57.1849 52.9531 56.7161 52.9531 56.1484C52.9531 55.2943 53.2917 54.638 53.9688 54.1797C54.6458 53.7214 55.6771 53.4714 57.0625 53.4297L58.5391 53.3672V52.8438C58.5391 52.1042 58.3802 51.5859 58.0625 51.2891C57.7448 50.9922 57.2969 50.8438 56.7188 50.8438C56.2708 50.8438 55.8438 50.9089 55.4375 51.0391C55.0312 51.1693 54.6458 51.3229 54.2812 51.5L53.8828 50.5156C54.2682 50.3177 54.7109 50.1484 55.2109 50.0078C55.7109 49.8672 56.237 49.7969 56.7891 49.7969ZM58.5234 54.2812L57.2188 54.3359C56.151 54.3776 55.3984 54.5521 54.9609 54.8594C54.5234 55.1667 54.3047 55.6016 54.3047 56.1641C54.3047 56.6536 54.4531 57.0156 54.75 57.25C55.0469 57.4844 55.4401 57.6016 55.9297 57.6016C56.6901 57.6016 57.3125 57.3906 57.7969 56.9688C58.2812 56.5469 58.5234 55.9141 58.5234 55.0703V54.2812ZM66.3672 49.7812C66.5391 49.7812 66.7188 49.7917 66.9062 49.8125C67.0938 49.8281 67.2604 49.8516 67.4062 49.8828L67.2422 51.0859C67.1016 51.0495 66.9453 51.0208 66.7734 51C66.6016 50.9792 66.4401 50.9688 66.2891 50.9688C65.9453 50.9688 65.6198 51.0391 65.3125 51.1797C65.0104 51.3151 64.7448 51.513 64.5156 51.7734C64.2865 52.0286 64.1068 52.3385 63.9766 52.7031C63.8464 53.0625 63.7812 53.4635 63.7812 53.9062V58.5H62.4766V49.9375H63.5547L63.6953 51.5156H63.75C63.9271 51.1979 64.1406 50.9089 64.3906 50.6484C64.6406 50.3828 64.9297 50.1719 65.2578 50.0156C65.5911 49.8594 65.9609 49.7812 66.3672 49.7812ZM67.6719 49.9375H69.0625L70.9531 54.9062C71.0625 55.1979 71.1641 55.4792 71.2578 55.75C71.3516 56.0156 71.4349 56.2708 71.5078 56.5156C71.5807 56.7604 71.638 56.9974 71.6797 57.2266H71.7344C71.8073 56.9661 71.9115 56.625 72.0469 56.2031C72.1823 55.776 72.3281 55.3411 72.4844 54.8984L74.2734 49.9375H75.6719L71.9453 59.7578C71.7474 60.2839 71.5156 60.7422 71.25 61.1328C70.9896 61.5234 70.6719 61.8229 70.2969 62.0312C69.9219 62.2448 69.4688 62.3516 68.9375 62.3516C68.6927 62.3516 68.4766 62.3359 68.2891 62.3047C68.1016 62.2786 67.9401 62.2474 67.8047 62.2109V61.1719C67.9193 61.1979 68.0573 61.2214 68.2188 61.2422C68.3854 61.263 68.5573 61.2734 68.7344 61.2734C69.0573 61.2734 69.3359 61.2109 69.5703 61.0859C69.8099 60.9661 70.0156 60.7891 70.1875 60.5547C70.3594 60.3203 70.5078 60.0417 70.6328 59.7188L71.1016 58.5156L67.6719 49.9375Z" fill="#CDCDCD"/>
</svg>
